<?xml version="1.0" standalone="no"?>
<!DOCTYPE svg PUBLIC "-//W3C//DTD SVG 20010904//EN"
 "http://www.w3.org/TR/2001/REC-SVG-20010904/DTD/svg10.dtd">
<svg version="1.0" xmlns="http://www.w3.org/2000/svg"
 width="238.000000pt" height="238.000000pt" viewBox="0 0 238.000000 238.000000"
 preserveAspectRatio="xMidYMid meet">
<metadata>
Created by potrace 1.14, written by Peter Selinger 2001-2017
</metadata>
<g transform="translate(0.000000,238.000000) scale(0.100000,-0.100000)"
fill="#000000" stroke="none">
<path d="M0 1190 l0 -1190 1190 0 1190 0 0 1190 0 1190 -1190 0 -1190 0 0
-1190z m1681 773 c10 -11 13 -40 12 -94 -5 -154 -50 -278 -148 -404 -109 -142
-173 -265 -189 -365 -3 -20 -6 -86 -7 -148 -1 -132 -7 -140 -69 -94 -130 95
-195 276 -173 484 20 190 89 344 215 474 73 75 136 116 227 145 71 23 115 24
132 2z m248 -101 c81 -87 121 -209 122 -374 2 -204 -73 -397 -208 -539 -75
-79 -133 -116 -229 -149 -114 -40 -139 -23 -149 102 -13 163 27 311 116 428
144 187 191 301 205 495 4 50 11 95 16 102 16 20 77 -11 127 -65z"/>
<path d="M1575 1942 c-28 -10 -70 -29 -95 -44 -50 -29 -117 -94 -108 -104 4
-3 33 13 65 35 43 30 81 47 146 63 67 16 87 25 87 39 0 15 -19 30 -38 29 -4
-1 -30 -8 -57 -18z"/>
<path d="M1715 930 c-28 -16 -63 -32 -80 -36 -40 -9 -85 -32 -85 -44 0 -35
150 21 199 74 35 37 23 39 -34 6z"/>
</g>
</svg>
